<svg class="svg-icon" style="width: 1em; height: 1em;vertical-align: middle;fill: currentColor;overflow: hidden;" viewBox="0 0 1024 1024" version="1.1" xmlns="http://www.w3.org/2000/svg"><path d="M684.885333 756.736h-13.824a100.693333 100.693333 0 0 1-100.522666-100.693333v-44.714667h-112.810667v44.714667a100.522667 100.522667 0 0 1-100.522667 100.693333h-18.090666a140.629333 140.629333 0 0 0-140.8 140.629333v29.866667h627.370666v-29.866667a140.629333 140.629333 0 0 0-140.8-140.629333z" fill="#FCFEFF" /><path d="M604.330667 927.232L580.266667 845.824a26.453333 26.453333 0 0 0 26.112-21.845333l14.165333-80.725334a102.4 102.4 0 0 1-45.056-54.613333H452.266667a101.205333 101.205333 0 0 1-48.981334 56.832l13.824 78.506667A26.453333 26.453333 0 0 0 443.733333 845.824l-24.405333 81.408z" fill="#D8E3F0" /><path d="M825.685333 870.4a232.789333 232.789333 0 0 1-93.525333 19.626667H291.84A232.789333 232.789333 0 0 1 198.314667 870.4v56.149333h627.370666V870.4z" fill="#D8E3F0" /><path d="M456.021333 782.165333h111.957334l-11.776 66.901334h-88.405334l-11.776-66.901334z" fill="#69BAF9" /><path d="M624.64 665.258667L512 769.024l76.117333 76.117333 68.437334-124.928-31.914667-54.954666zM399.36 665.258667l112.64 103.765333-76.117333 76.117333-68.437334-124.928 31.914667-54.954666z" fill="#FCFEFF" /><path d="M556.202667 927.232l-23.381334-78.165333h-41.642666l-23.381334 78.165333h88.405334z" fill="#69BAF9" /><path d="M699.733333 326.997333v191.146667a185.856 185.856 0 0 1-187.733333 183.978667 185.856 185.856 0 0 1-187.733333-183.978667v-191.146667" fill="#FFDEAD" /><path d="M643.584 326.997333v191.146667A184.661333 184.661333 0 0 1 484.010667 699.733333a189.610667 189.610667 0 0 0 27.989333 2.389334 185.856 185.856 0 0 0 187.733333-183.978667v-191.146667z" fill="#FFC670" /><path d="M244.906667 265.557333l534.357333 0 0 73.045334-534.357333 0 0-73.045334Z" fill="#F6716F" /><path d="M742.570667 265.557333h-72.192a36.693333 36.693333 0 0 1 0 73.216h72.192a36.693333 36.693333 0 0 0 0-73.216z" fill="#F0504D" /><path d="M281.429333 265.557333h72.192a36.693333 36.693333 0 0 0 0 73.216h-72.192a36.693333 36.693333 0 0 1 0-73.216z" fill="#F6A2A2" /><path d="M599.04 100.181333L543.744 119.466667a96.426667 96.426667 0 0 1-63.488 0L424.96 100.181333A62.976 62.976 0 0 0 341.333333 159.744v105.813333h341.333334v-105.813333a62.976 62.976 0 0 0-83.626667-59.562667z" fill="#F6716F" /><path d="M599.04 100.181333l-10.752 3.584a63.146667 63.146667 0 0 1 34.133333 55.978667v105.813333H682.666667v-105.813333a62.976 62.976 0 0 0-83.626667-59.562667z" fill="#F0504D" /><path d="M424.96 100.181333l10.752 3.584a63.146667 63.146667 0 0 0-34.133333 55.978667v105.813333H341.333333v-105.813333a62.976 62.976 0 0 1 83.626667-59.562667z" fill="#F6A2A2" /><path d="M341.504 203.776h340.992v61.781333H341.504z" fill="#FCFEFF" /><path d="M324.266667 508.586667v-117.077334h-37.034667a31.914667 31.914667 0 0 0-33.109333 30.549334V443.733333A68.266667 68.266667 0 0 0 324.266667 508.586667zM699.733333 508.586667v-117.077334h37.205334a31.914667 31.914667 0 0 1 33.109333 30.549334V443.733333A68.266667 68.266667 0 0 1 699.733333 508.586667z" fill="#FFC670" /><path d="M888.490667 910.165333h-45.738667v-12.8a157.866667 157.866667 0 0 0-157.866667-157.696H665.6l5.973333-10.752a17.066667 17.066667 0 0 0 0-17.066666l-24.576-42.666667a199.509333 199.509333 0 0 0 69.802667-145.066667A83.626667 83.626667 0 0 0 786.944 443.733333v-21.674666a48.981333 48.981333 0 0 0-50.176-47.616H716.8v-18.602667h25.941333a53.76 53.76 0 0 0 0-107.349333H699.733333v-88.746667a80.042667 80.042667 0 0 0-105.984-75.776L538.282667 102.4a81.578667 81.578667 0 0 1-52.565334 0l-55.296-18.432A80.042667 80.042667 0 0 0 324.266667 159.744v88.746667h-42.837334a53.76 53.76 0 0 0 0 107.349333H307.2v18.602667h-19.968a48.981333 48.981333 0 0 0-50.176 47.616V443.733333A83.626667 83.626667 0 0 0 307.2 524.117333a199.509333 199.509333 0 0 0 69.632 144.896l-24.576 42.666667a17.066667 17.066667 0 0 0 0 17.066667l6.144 11.093333h-19.285333a157.866667 157.866667 0 0 0-157.866667 157.696v12.8H135.509333a17.066667 17.066667 0 1 0 0 34.133333h752.981334a17.066667 17.066667 0 0 0 0-34.133333zM307.2 488.789333A48.64 48.64 0 0 1 271.189333 443.733333v-21.674666a14.848 14.848 0 0 1 16.042667-13.482667H307.2z m329.728 231.594667l-52.736 96.597333-47.616-47.445333 83.968-77.312z m99.84-311.808a14.848 14.848 0 0 1 16.042667 13.482667V443.733333A48.64 48.64 0 0 1 716.8 488.789333v-80.213333zM358.4 159.744a45.226667 45.226667 0 0 1 19.285333-37.376 45.909333 45.909333 0 0 1 41.642667-6.144l55.125333 18.944a116.736 116.736 0 0 0 74.752 0l55.125334-18.944a45.909333 45.909333 0 0 1 41.642666 6.144A45.226667 45.226667 0 0 1 665.6 159.744v26.965333H358.4z m0 61.098667h307.2v27.648H358.4z m-77.141333 100.864a19.626667 19.626667 0 0 1 0-39.082667h460.8a19.626667 19.626667 0 0 1 0 39.082667zM341.333333 518.144v-162.304h341.333334v162.304a170.666667 170.666667 0 0 1-341.333334 0z m170.666667 201.045333a217.6 217.6 0 0 0 31.914667-2.389333L512 745.813333 480.085333 716.8a217.6 217.6 0 0 0 31.914667 2.389333z m-24.576 51.2l-47.616 47.445334-52.736-96.597334 17.066667-28.16z m-32.256 140.629334H215.381333v-12.8a123.733333 123.733333 0 0 1 123.733334-123.562667h18.090666a119.466667 119.466667 0 0 0 19.114667-1.706667L420.864 853.333333a17.066667 17.066667 0 0 0 12.458667 8.874667h2.56a17.066667 17.066667 0 0 0 11.946666-5.12l3.754667-3.584a17.066667 17.066667 0 0 0 16.213333 12.458667z m35.669333 0l13.141334-44.032h16.042666l13.141334 44.032z m51.2-78.165334h-59.733333l-1.365333-7.68L512 793.258667l31.232 31.061333z m266.752 78.165334H568.832l-13.141333-44.032a17.066667 17.066667 0 0 0 16.213333-12.458667l3.754667 3.584a17.066667 17.066667 0 0 0 11.946666 5.12h2.56a17.066667 17.066667 0 0 0 12.458667-8.874667L648.533333 771.242667a114.517333 114.517333 0 0 0 22.869334 2.56h13.824a123.733333 123.733333 0 0 1 123.733333 123.562666z" fill="#3D3D63" /><path d="M445.098667 554.666667a17.066667 17.066667 0 0 0-8.874667 22.528 82.602667 82.602667 0 0 0 151.552 0A17.066667 17.066667 0 0 0 556.373333 563.2a48.298667 48.298667 0 0 1-88.746666 0 17.066667 17.066667 0 0 0-22.528-8.533333zM436.224 453.973333a17.066667 17.066667 0 0 0 17.066667-17.066666v-19.626667a17.066667 17.066667 0 0 0-34.133334 0v19.626667a17.066667 17.066667 0 0 0 17.066667 17.066666zM587.776 453.973333a17.066667 17.066667 0 0 0 17.066667-17.066666v-19.626667a17.066667 17.066667 0 0 0-34.133334 0v19.626667a17.066667 17.066667 0 0 0 17.066667 17.066666z" fill="#3D3D63" /></svg>