<svg width="38" height="38" viewBox="0 0 38 38" fill="none" xmlns="http://www.w3.org/2000/svg">
<g id="man-13 1">
<path id="Vector" d="M25.4157 28.082H24.9027C23.9127 28.0803 22.9639 27.6859 22.2645 26.9853C21.5651 26.2847 21.1723 25.3353 21.1723 24.3453V22.686H16.986V24.3453C16.9868 24.8357 16.891 25.3215 16.7039 25.7748C16.5168 26.2281 16.2421 26.6401 15.8957 26.9872C15.5492 27.3342 15.1377 27.6096 14.6847 27.7974C14.2317 27.9853 13.7461 28.082 13.2557 28.082H12.5843C11.8985 28.0812 11.2192 28.2155 10.5853 28.4774C9.9514 28.7393 9.37535 29.1236 8.89008 29.6083C8.40481 30.093 8.01984 30.6685 7.75719 31.3021C7.49453 31.9357 7.35933 32.6148 7.35933 33.3007V34.409H30.6407V33.3007C30.6407 32.6148 30.5055 31.9357 30.2428 31.3021C29.9802 30.6685 29.5952 30.093 29.1099 29.6083C28.6246 29.1236 28.0486 28.7393 27.4147 28.4774C26.7808 28.2155 26.1015 28.0812 25.4157 28.082Z" fill="#FCFEFF"/>
<path id="Vector_2" d="M22.4263 34.409L21.5333 31.388C21.7644 31.3886 21.9883 31.3076 22.1656 31.1593C22.3428 31.011 22.4621 30.8049 22.5023 30.5773L23.028 27.5817C22.2474 27.1264 21.6546 26.4079 21.356 25.555H16.7833C16.47 26.4649 15.8194 27.2198 14.9657 27.664L15.4787 30.5773C15.5194 30.8082 15.6415 31.0168 15.8227 31.1655C16.0039 31.3142 16.2323 31.3931 16.4667 31.388L15.561 34.409H22.4263Z" fill="#D8E3F0"/>
<path id="Vector_3" d="M30.6407 32.3C29.5466 32.7802 28.3648 33.0282 27.17 33.0283H10.83C9.63519 33.0282 8.45341 32.7802 7.35933 32.3V34.3837H30.6407V32.3Z" fill="#D8E3F0"/>
<path id="Vector_4" d="M16.9227 29.0257H21.0773L20.6403 31.5083H17.3597L16.9227 29.0257Z" fill="#69BAF9"/>
<path id="Vector_5" d="M23.18 24.6873L19 28.538L21.8247 31.3627L24.3643 26.7267L23.18 24.6873ZM14.82 24.6873L19 28.538L16.1753 31.3627L13.6357 26.7267L14.82 24.6873Z" fill="#FCFEFF"/>
<path id="Vector_6" d="M20.6403 34.409L19.7727 31.5083H18.2273L17.3597 34.409H20.6403Z" fill="#69BAF9"/>
<path id="Vector_7" d="M25.9667 12.1347V19.228C25.9576 20.1337 25.7701 21.0288 25.4151 21.8621C25.0601 22.6954 24.5443 23.4506 23.8974 24.0846C23.2505 24.7186 22.485 25.219 21.6447 25.5571C20.8044 25.8952 19.9057 26.0645 19 26.0553C18.0943 26.0645 17.1956 25.8952 16.3553 25.5571C15.515 25.219 14.7495 24.7186 14.1026 24.0846C13.4557 23.4506 12.9399 22.6954 12.5849 21.8621C12.2299 21.0288 12.0424 20.1337 12.0333 19.228V12.1347" fill="#FFDEAD"/>
<path id="Vector_8" d="M23.883 12.1347V19.228C23.8709 20.8755 23.2656 22.4634 22.1781 23.701C21.0906 24.9385 19.5936 25.7429 17.9613 25.9667C18.3049 26.0219 18.6521 26.0515 19 26.0553C19.9057 26.0645 20.8044 25.8952 21.6447 25.5571C22.485 25.219 23.2505 24.7186 23.8974 24.0846C24.5443 23.4506 25.0601 22.6954 25.4151 21.8621C25.7701 21.0288 25.9576 20.1337 25.9667 19.228V12.1347H23.883Z" fill="#FFC670"/>
<path id="Vector_9" d="M9.08833 9.85468H28.918V12.5653H9.08833V9.85468Z" fill="#F6716F"/>
<path id="Vector_10" d="M27.5563 9.85468H24.8773C25.2216 9.8782 25.5441 10.0315 25.7796 10.2837C26.0152 10.5359 26.1462 10.8681 26.1462 11.2132C26.1462 11.5582 26.0152 11.8904 25.7796 12.1426C25.5441 12.3948 25.2216 12.5482 24.8773 12.5717H27.5563C27.9006 12.5482 28.2231 12.3948 28.4586 12.1426C28.6942 11.8904 28.8252 11.5582 28.8252 11.2132C28.8252 10.8681 28.6942 10.5359 28.4586 10.2837C28.2231 10.0315 27.9006 9.8782 27.5563 9.85468Z" fill="#F0504D"/>
<path id="Vector_11" d="M10.4437 9.85468H13.1227C12.7784 9.8782 12.4559 10.0315 12.2204 10.2837C11.9848 10.5359 11.8538 10.8681 11.8538 11.2132C11.8538 11.5582 11.9848 11.8904 12.2204 12.1426C12.4559 12.3948 12.7784 12.5482 13.1227 12.5717H10.4437C10.0994 12.5482 9.7769 12.3948 9.54136 12.1426C9.30582 11.8904 9.17481 11.5582 9.17481 11.2132C9.17481 10.8681 9.30582 10.5359 9.54136 10.2837C9.7769 10.0315 10.0994 9.8782 10.4437 9.85468Z" fill="#F6A2A2"/>
<path id="Vector_12" d="M22.23 3.71767L20.178 4.43334C19.4152 4.69929 18.5848 4.69929 17.822 4.43334L15.77 3.71767C15.4177 3.59538 15.0412 3.55918 14.672 3.61211C14.3028 3.66504 13.9517 3.80556 13.6479 4.02192C13.3441 4.23829 13.0965 4.52422 12.9258 4.85582C12.7551 5.18741 12.6663 5.55505 12.6667 5.92801V9.85467H25.3333V5.92801C25.3337 5.55505 25.2449 5.18741 25.0742 4.85582C24.9035 4.52422 24.6559 4.23829 24.3521 4.02192C24.0483 3.80556 23.6972 3.66504 23.328 3.61211C22.9588 3.55918 22.5823 3.59538 22.23 3.71767Z" fill="#F6716F"/>
<path id="Vector_13" d="M22.23 3.71767L21.831 3.85067C22.2121 4.0478 22.5317 4.34576 22.7551 4.71206C22.9784 5.07837 23.0969 5.49897 23.0977 5.92801V9.85467H25.3333V5.92801C25.3337 5.55505 25.2449 5.18741 25.0742 4.85582C24.9035 4.52422 24.6559 4.23829 24.3521 4.02192C24.0483 3.80556 23.6972 3.66504 23.328 3.61211C22.9588 3.55918 22.5823 3.59538 22.23 3.71767Z" fill="#F0504D"/>
<path id="Vector_14" d="M15.77 3.71767L16.169 3.85067C15.7879 4.0478 15.4683 4.34576 15.2449 4.71206C15.0216 5.07837 14.9031 5.49897 14.9023 5.92801V9.85467H12.6667V5.92801C12.6663 5.55505 12.7551 5.18741 12.9258 4.85582C13.0965 4.52422 13.3441 4.23829 13.6479 4.02192C13.9517 3.80556 14.3028 3.66504 14.672 3.61211C15.0412 3.55918 15.4177 3.59538 15.77 3.71767Z" fill="#F6A2A2"/>
<path id="Vector_15" d="M12.673 7.562H25.327V9.85466H12.673V7.562Z" fill="#FCFEFF"/>
<path id="Vector_16" d="M12.0333 18.8733V14.5287H10.659C10.3459 14.5167 10.0408 14.6292 9.81049 14.8417C9.58021 15.0542 9.44351 15.3493 9.43033 15.6623V16.4667C9.46319 17.1286 9.75413 17.7513 10.2407 18.2012C10.7273 18.6511 11.3709 18.8924 12.0333 18.8733ZM25.9667 18.8733V14.5287H27.3473C27.6604 14.5167 27.9655 14.6292 28.1958 14.8417C28.4261 15.0542 28.5628 15.3493 28.576 15.6623V16.4667C28.5431 17.1297 28.2513 17.7534 27.7633 18.2034C27.2753 18.6535 26.6302 18.8941 25.9667 18.8733Z" fill="#FFC670"/>
<path id="Vector_17" d="M32.9713 33.7757H31.274V33.3007C31.2723 31.748 30.6544 30.2596 29.5559 29.1623C28.4574 28.065 26.9683 27.4487 25.4157 27.4487H24.7L24.9217 27.0497C24.9773 26.9534 25.0065 26.8442 25.0065 26.733C25.0065 26.6218 24.9773 26.5126 24.9217 26.4163L24.0097 24.833C24.7917 24.1648 25.4259 23.3411 25.8719 22.4142C26.3179 21.4873 26.5659 20.4777 26.6 19.4497C27.3134 19.3334 27.9637 18.9717 28.439 18.4272C28.9142 17.8826 29.1844 17.1892 29.203 16.4667V15.6623C29.1897 15.1813 28.9863 14.7252 28.6372 14.394C28.2882 14.0627 27.822 13.8834 27.341 13.8953H26.6V13.205H27.5627C28.0715 13.1763 28.5501 12.9539 28.9002 12.5835C29.2502 12.2131 29.4453 11.7228 29.4453 11.2132C29.4453 10.7035 29.2502 10.2132 28.9002 9.84278C28.5501 9.47239 28.0715 9.25003 27.5627 9.22133H25.9667V5.92799C25.967 5.45509 25.8544 4.98894 25.6382 4.56832C25.4221 4.14771 25.1086 3.78478 24.7239 3.50973C24.3392 3.23468 23.8944 3.05547 23.4265 2.98698C22.9586 2.9185 22.481 2.96273 22.0337 3.11599L19.9753 3.79999C19.3429 4.01522 18.6571 4.01522 18.0247 3.79999L15.9727 3.11599C15.5249 2.96147 15.0467 2.91627 14.5779 2.98416C14.1092 3.05204 13.6634 3.23105 13.2779 3.50624C12.8924 3.78143 12.5783 4.14483 12.3618 4.56611C12.1453 4.98739 12.0327 5.45434 12.0333 5.92799V9.22133H10.4437C9.93482 9.25003 9.45625 9.47239 9.10617 9.84278C8.75608 10.2132 8.56103 10.7035 8.56103 11.2132C8.56103 11.7228 8.75608 12.2131 9.10617 12.5835C9.45625 12.9539 9.93482 13.1763 10.4437 13.205H11.4V13.8953H10.659C10.178 13.8834 9.71181 14.0627 9.36277 14.394C9.01372 14.7252 8.81027 15.1813 8.797 15.6623V16.4667C8.81561 17.1892 9.08583 17.8826 9.56104 18.4272C10.0363 18.9717 10.6866 19.3334 11.4 19.4497C11.4342 20.4761 11.6816 21.4842 12.1265 22.4099C12.5713 23.3356 13.2039 24.1586 13.984 24.8267L13.072 26.41C13.0164 26.5063 12.9871 26.6155 12.9871 26.7267C12.9871 26.8378 13.0164 26.947 13.072 27.0433L13.3 27.455H12.5843C11.0317 27.455 9.54257 28.0713 8.4441 29.1686C7.34563 30.2659 6.72768 31.7544 6.726 33.307V33.782H5.02867C4.94548 33.782 4.86311 33.7983 4.78625 33.8302C4.7094 33.862 4.63956 33.9086 4.58073 33.9674C4.52191 34.0263 4.47524 34.0961 4.4434 34.1729C4.41157 34.2498 4.39518 34.3321 4.39518 34.4153C4.39518 34.4985 4.41157 34.5809 4.4434 34.6577C4.47524 34.7346 4.52191 34.8044 4.58073 34.8632C4.63956 34.922 4.7094 34.9687 4.78625 35.0005C4.86311 35.0323 4.94548 35.0487 5.02867 35.0487H32.9713C33.1393 35.0486 33.3003 34.9819 33.4191 34.8631C33.5378 34.7443 33.6045 34.5833 33.6045 34.4153C33.6045 34.2474 33.5378 34.0863 33.4191 33.9675C33.3003 33.8488 33.1393 33.782 32.9713 33.782V33.7757ZM11.4 18.1387C11.028 18.039 10.6977 17.8229 10.4573 17.5221C10.2168 17.2213 10.0789 16.8515 10.0637 16.4667V15.6623C10.0765 15.5171 10.1464 15.383 10.258 15.2892C10.3696 15.1954 10.5138 15.1497 10.659 15.162H11.4V18.1387ZM23.636 26.733L21.679 30.3177L19.912 28.557L23.028 25.688L23.636 26.733ZM27.341 15.162C27.4862 15.1497 27.6304 15.1954 27.742 15.2892C27.8536 15.383 27.9235 15.5171 27.9363 15.6623V16.4667C27.9211 16.8515 27.7832 17.2213 27.5427 17.5221C27.3023 17.8229 26.972 18.039 26.6 18.1387V15.162H27.341ZM13.3 5.92799C13.298 5.65613 13.3621 5.38785 13.4868 5.14624C13.6115 4.90464 13.793 4.69693 14.0157 4.54099C14.2364 4.3825 14.4918 4.27911 14.7607 4.23945C15.0295 4.19979 15.3039 4.225 15.561 4.31299L17.6067 5.01599C18.5063 5.32005 19.481 5.32005 20.3807 5.01599L22.4263 4.31299C22.6834 4.225 22.9578 4.19979 23.2267 4.23945C23.4955 4.27911 23.7509 4.3825 23.9717 4.54099C24.1967 4.69552 24.3807 4.90261 24.5076 5.1443C24.6345 5.386 24.7006 5.655 24.7 5.92799V6.92866H13.3V5.92799ZM13.3 8.19533H24.7V9.22133H13.3V8.19533ZM10.4373 11.9383C10.2567 11.9214 10.0889 11.8377 9.96671 11.7036C9.84455 11.5695 9.77684 11.3946 9.77684 11.2132C9.77684 11.0317 9.84455 10.8568 9.96671 10.7227C10.0889 10.5886 10.2567 10.5049 10.4373 10.488H27.5373C27.718 10.5049 27.8858 10.5886 28.008 10.7227C28.1301 10.8568 28.1978 11.0317 28.1978 11.2132C28.1978 11.3946 28.1301 11.5695 28.008 11.7036C27.8858 11.8377 27.718 11.9214 27.5373 11.9383H10.4373ZM12.6667 19.228V13.205H25.3333V19.228C25.3333 20.9077 24.6661 22.5186 23.4783 23.7063C22.2906 24.8941 20.6797 25.5613 19 25.5613C17.3203 25.5613 15.7094 24.8941 14.5217 23.7063C13.3339 22.5186 12.6667 20.9077 12.6667 19.228ZM19 26.6887C19.3964 26.6882 19.7923 26.6586 20.1843 26.6L19 27.6767L17.8157 26.6C18.2077 26.6586 18.6036 26.6882 19 26.6887ZM18.088 28.5887L16.321 30.3493L14.364 26.7647L14.9973 25.7197L18.088 28.5887ZM16.891 33.8073H7.99267V33.3323C7.99434 32.1156 8.47885 30.9494 9.33977 30.0896C10.2007 29.2299 11.3676 28.747 12.5843 28.747H13.2557C13.4934 28.7449 13.7306 28.7238 13.965 28.6837L15.618 31.6667C15.6641 31.7537 15.7299 31.8289 15.8102 31.886C15.8905 31.9432 15.983 31.9809 16.0803 31.996H16.1753C16.3424 31.9936 16.5017 31.9253 16.6187 31.806L16.758 31.673C16.7949 31.8047 16.8735 31.9209 16.9819 32.0042C17.0904 32.0876 17.2229 32.1336 17.3597 32.1353L16.891 33.8073ZM18.2147 33.8073L18.7023 32.1733H19.2977L19.7853 33.8073H18.2147ZM20.1147 30.9067H17.898L17.8473 30.6217L19 29.4373L20.159 30.59L20.1147 30.9067ZM30.0137 33.8073H21.109L20.6213 32.1733C20.7581 32.1716 20.8906 32.1256 20.9991 32.0422C21.1075 31.9589 21.1861 31.8427 21.223 31.711L21.3623 31.844C21.4793 31.9633 21.6386 32.0316 21.8057 32.034H21.9007C21.998 32.0189 22.0905 31.9812 22.1708 31.924C22.2511 31.8669 22.3169 31.7917 22.363 31.7047L24.0667 28.6203C24.3456 28.6804 24.63 28.7122 24.9153 28.7153H25.4283C26.645 28.7153 27.812 29.1982 28.6729 30.058C29.5338 30.9177 30.0183 32.084 30.02 33.3007L30.0137 33.8073Z" fill="#3D3D63"/>
<path id="Vector_18" d="M16.5173 20.5833C16.4406 20.6164 16.3712 20.6643 16.3131 20.7243C16.255 20.7842 16.2093 20.8551 16.1787 20.9328C16.1481 21.0105 16.1332 21.0935 16.1348 21.177C16.1364 21.2605 16.1545 21.3429 16.188 21.4193C16.4259 21.9675 16.8188 22.4342 17.3183 22.762C17.8179 23.0898 18.4025 23.2645 19 23.2645C19.5975 23.2645 20.1821 23.0898 20.6817 22.762C21.1812 22.4342 21.5741 21.9675 21.812 21.4193C21.8809 21.2648 21.8855 21.0892 21.825 20.9313C21.7644 20.7733 21.6435 20.6459 21.489 20.577C21.3345 20.5081 21.1589 20.5035 21.0009 20.5641C20.843 20.6246 20.7155 20.7455 20.6467 20.9C20.5083 21.222 20.2785 21.4963 19.9859 21.6891C19.6932 21.8818 19.3504 21.9846 19 21.9846C18.6496 21.9846 18.3068 21.8818 18.0141 21.6891C17.7215 21.4963 17.4917 21.222 17.3533 20.9C17.2842 20.7474 17.1574 20.6283 17.0007 20.569C16.8441 20.5096 16.6702 20.5148 16.5173 20.5833ZM16.188 16.8467C16.356 16.8467 16.5171 16.7799 16.6358 16.6612C16.7546 16.5424 16.8213 16.3813 16.8213 16.2133V15.485C16.8213 15.317 16.7546 15.1559 16.6358 15.0372C16.5171 14.9184 16.356 14.8517 16.188 14.8517C16.02 14.8517 15.8589 14.9184 15.7402 15.0372C15.6214 15.1559 15.5547 15.317 15.5547 15.485V16.2133C15.5547 16.3813 15.6214 16.5424 15.7402 16.6612C15.8589 16.7799 16.02 16.8467 16.188 16.8467ZM21.812 16.8467C21.98 16.8467 22.1411 16.7799 22.2598 16.6612C22.3786 16.5424 22.4453 16.3813 22.4453 16.2133V15.485C22.4453 15.317 22.3786 15.1559 22.2598 15.0372C22.1411 14.9184 21.98 14.8517 21.812 14.8517C21.644 14.8517 21.4829 14.9184 21.3642 15.0372C21.2454 15.1559 21.1787 15.317 21.1787 15.485V16.2133C21.1787 16.3813 21.2454 16.5424 21.3642 16.6612C21.4829 16.7799 21.644 16.8467 21.812 16.8467Z" fill="#3D3D63"/>
</g>
</svg>
