<svg width="30" height="30" viewBox="0 0 30 30" fill="none" xmlns="http://www.w3.org/2000/svg">
<g id="power-85 1" clip-path="url(#clip0_350_114)">
<path id="Vector" d="M0.740196 15.0395L14.9602 29.2595L29.1806 15.0395L14.9603 0.819084L0.740196 15.0395ZM14.9602 29.9664C14.9218 29.9664 14.8837 29.9588 14.8482 29.944C14.8127 29.9293 14.7805 29.9077 14.7534 29.8805L0.119269 15.2463C0.0643991 15.1914 0.0335751 15.117 0.0335751 15.0394C0.0335751 14.9618 0.0643991 14.8873 0.119269 14.8324L14.7534 0.198303C14.8083 0.143434 14.8827 0.11261 14.9603 0.11261C15.038 0.11261 15.1124 0.143434 15.1673 0.198303L29.8014 14.8324C29.9159 14.9466 29.9159 15.132 29.8014 15.2463L15.1673 29.8805C15.1401 29.9077 15.1079 29.9293 15.0724 29.944C15.0369 29.9587 14.9988 29.9663 14.9603 29.9662L14.9602 29.9664Z" fill="#FFD454"/>
<path id="Vector_2" d="M1.66771 14.7468H10.3891L13.5154 9.31813L1.66756 14.7467L1.66771 14.7468ZM10.5582 15.3322H0.326049C0.259233 15.3322 0.194421 15.3094 0.142382 15.2674C0.0903431 15.2255 0.0542105 15.1671 0.0399876 15.1018C0.0257647 15.0365 0.0343077 14.9683 0.0641973 14.9086C0.094087 14.8488 0.143524 14.8011 0.204293 14.7733L14.1041 8.40452C14.1605 8.37871 14.2237 8.3715 14.2845 8.38391C14.3453 8.39633 14.4006 8.42773 14.4424 8.47359C14.5282 8.56755 14.5433 8.70642 14.4796 8.81676L10.8119 15.1855C10.7862 15.2301 10.7492 15.2671 10.7047 15.2928C10.6602 15.3185 10.6097 15.3321 10.5582 15.332V15.3322ZM19.4931 15.3322L16.3668 20.7604L28.2146 15.332H19.4931V15.3322ZM15.6562 21.7007C15.6049 21.7007 15.5544 21.6872 15.5099 21.6615C15.4655 21.6358 15.4285 21.5989 15.4028 21.5545C15.3771 21.51 15.3636 21.4596 15.3635 21.4082C15.3635 21.3569 15.377 21.3064 15.4026 21.2619L19.0703 14.8933C19.096 14.8487 19.1329 14.8117 19.1775 14.786C19.222 14.7602 19.2725 14.7467 19.324 14.7467H29.5559C29.5956 14.7284 29.639 14.7193 29.6827 14.7201C29.7264 14.7208 29.7694 14.7313 29.8086 14.7509C29.8477 14.7704 29.882 14.7985 29.9088 14.833C29.9357 14.8675 29.9545 14.9076 29.9638 14.9503C29.9731 14.9931 29.9728 15.0373 29.9627 15.0799C29.9527 15.1225 29.9332 15.1623 29.9058 15.1963C29.8783 15.2304 29.8436 15.2579 29.8041 15.2767C29.7647 15.2956 29.7215 15.3054 29.6778 15.3054L15.7782 21.6742C15.74 21.6917 15.6983 21.7008 15.6562 21.7007Z" fill="#FFD454"/>
<path id="Vector_3" d="M2.63005 7.95585L7.87683 27.3697L27.2908 22.123L22.044 2.70893L2.63005 7.95585ZM7.67049 28.0215C7.60619 28.0214 7.54369 28.0002 7.49264 27.9612C7.44159 27.9221 7.40483 27.8672 7.38805 27.8052L1.98878 7.82605C1.9685 7.75112 1.97882 7.67121 2.01746 7.60389C2.0561 7.53657 2.1199 7.48735 2.19483 7.46707L22.1737 2.06751C22.2108 2.05748 22.2495 2.05486 22.2876 2.0598C22.3257 2.06474 22.3625 2.07715 22.3958 2.09631C22.4292 2.11548 22.4584 2.14102 22.4818 2.17148C22.5053 2.20195 22.5225 2.23673 22.5325 2.27385L27.9322 22.2527C27.9423 22.2898 27.9449 22.3285 27.94 22.3666C27.9351 22.4047 27.9227 22.4415 27.9036 22.4748C27.8844 22.5081 27.8589 22.5374 27.8285 22.5608C27.798 22.5843 27.7633 22.6015 27.7261 22.6115L7.74702 28.0112C7.72156 28.0181 7.6958 28.0215 7.67049 28.0215Z" fill="#FFD454"/>
<path id="Vector_4" d="M5.66561 9.99264C5.61615 9.99264 5.5661 9.98005 5.52015 9.95356L2.12546 8.00342C2.09213 7.98428 2.06289 7.95876 2.03942 7.92832C2.01595 7.89788 1.99871 7.86311 1.98867 7.82601C1.97863 7.7889 1.97601 7.75019 1.98093 7.71206C1.98586 7.67394 1.99825 7.63717 2.01739 7.60383C2.03653 7.5705 2.06205 7.54126 2.09249 7.51779C2.12293 7.49432 2.15769 7.47707 2.1948 7.46704C2.2319 7.457 2.27062 7.45438 2.30874 7.4593C2.34686 7.46423 2.38364 7.47662 2.41698 7.49576L5.81166 9.44605C5.84499 9.46518 5.87423 9.4907 5.8977 9.52113C5.92117 9.55157 5.93841 9.58633 5.94844 9.62343C5.95847 9.66053 5.96109 9.69925 5.95615 9.73736C5.95121 9.77548 5.93881 9.81224 5.91966 9.84556C5.89405 9.89031 5.85706 9.92748 5.81244 9.95331C5.76782 9.97914 5.71716 9.99271 5.66561 9.99264ZM27.6159 22.6026C27.5665 22.6026 27.5164 22.59 27.4705 22.5637L24.1038 20.6296C24.0389 20.5898 23.992 20.5262 23.9732 20.4524C23.9544 20.3786 23.9651 20.3003 24.0031 20.2343C24.041 20.1682 24.1032 20.1195 24.1764 20.0986C24.2496 20.0776 24.3281 20.086 24.3953 20.122L27.762 22.0562C27.8179 22.0883 27.8617 22.138 27.8864 22.1976C27.9112 22.2571 27.9156 22.3232 27.8989 22.3855C27.8823 22.4478 27.8455 22.5029 27.7943 22.5421C27.7432 22.5814 27.6804 22.6026 27.6159 22.6026ZM24.2118 9.97522C24.1472 9.97543 24.0844 9.95428 24.0331 9.91507C23.9818 9.87587 23.945 9.8208 23.9283 9.75845C23.9115 9.69611 23.9159 9.62998 23.9407 9.57038C23.9655 9.51078 24.0093 9.46105 24.0653 9.42893L27.4563 7.47235C27.5235 7.43355 27.6034 7.42306 27.6784 7.44318C27.7534 7.46329 27.8173 7.51237 27.8561 7.57961C27.8949 7.64686 27.9054 7.72675 27.8853 7.80173C27.8651 7.87671 27.8161 7.94062 27.7488 7.97942L24.3578 9.93586C24.3134 9.96161 24.2631 9.97519 24.2118 9.97522ZM2.28512 22.6264C2.22057 22.6266 2.15777 22.6055 2.10649 22.5663C2.05522 22.5271 2.01835 22.472 2.00163 22.4097C1.98491 22.3473 1.98928 22.2812 2.01406 22.2216C2.03884 22.162 2.08264 22.1123 2.13863 22.0802L5.50171 20.1397C5.56878 20.1035 5.64728 20.095 5.72056 20.1158C5.79383 20.1366 5.85611 20.1852 5.89418 20.2512C5.93225 20.3171 5.9431 20.3954 5.92444 20.4692C5.90579 20.5431 5.85908 20.6068 5.79424 20.6467L2.43117 22.5872C2.38679 22.6129 2.33641 22.6265 2.28512 22.6264ZM14.9668 4.62264H14.9662C14.9278 4.62256 14.8897 4.61491 14.8542 4.60013C14.8188 4.58535 14.7865 4.56373 14.7594 4.5365C14.7323 4.50927 14.7108 4.47696 14.6962 4.44142C14.6815 4.40588 14.674 4.36781 14.6741 4.32937L14.6826 0.414296C14.6828 0.336799 14.7137 0.262541 14.7686 0.207811C14.8234 0.15308 14.8978 0.122345 14.9753 0.122345H14.9759C15.0143 0.122422 15.0523 0.130068 15.0878 0.144848C15.1233 0.159628 15.1555 0.181251 15.1826 0.208484C15.2098 0.235716 15.2313 0.268024 15.2459 0.303564C15.2605 0.339103 15.268 0.377178 15.2679 0.415613L15.2595 4.33069C15.2593 4.40818 15.2283 4.48244 15.1735 4.53717C15.1186 4.5919 15.0443 4.62264 14.9668 4.62264ZM14.9122 29.9372H14.9116C14.8732 29.9371 14.8351 29.9295 14.7996 29.9147C14.7642 29.8999 14.7319 29.8783 14.7048 29.8511C14.6777 29.8239 14.6562 29.7915 14.6416 29.756C14.6269 29.7205 14.6194 29.6824 14.6195 29.644L14.6279 25.7611C14.628 25.6836 14.6589 25.6093 14.7138 25.5545C14.7687 25.4997 14.843 25.469 14.9205 25.469H14.9213C14.9597 25.4691 14.9977 25.4767 15.0332 25.4915C15.0687 25.5063 15.1009 25.528 15.128 25.5552C15.1551 25.5825 15.1766 25.6148 15.1912 25.6503C15.2058 25.6859 15.2133 25.724 15.2132 25.7624L15.2049 29.6453C15.2047 29.7228 15.1738 29.797 15.1189 29.8518C15.064 29.9065 14.9897 29.9372 14.9122 29.9372Z" fill="#FFD454"/>
<path id="Vector_5" d="M2.66049 22.1757L22.0968 27.3392L27.2603 7.90304L7.824 2.73953L2.66049 22.1757ZM22.3048 27.99C22.2798 27.99 22.2546 27.9868 22.2294 27.9802L2.22732 22.6664C2.19015 22.6565 2.1553 22.6395 2.12474 22.6161C2.09418 22.5928 2.06852 22.5637 2.04922 22.5304C2.02992 22.4972 2.01737 22.4604 2.01227 22.4223C2.00717 22.3842 2.00963 22.3455 2.01951 22.3083L7.33361 2.30636C7.35355 2.23136 7.40247 2.16736 7.46959 2.12842C7.53671 2.08948 7.61656 2.07879 7.69156 2.0987L27.6935 7.41236C27.7685 7.4323 27.8326 7.48123 27.8716 7.54838C27.9105 7.61553 27.9212 7.69541 27.9013 7.77045L22.5875 27.7724C22.571 27.8347 22.5343 27.8899 22.4832 27.9292C22.4321 27.9686 22.3694 27.9899 22.3049 27.99H22.3048Z" fill="#FFD454"/>
<path id="Vector_6" d="M8.54268 3.39484L12.9195 10.9385L19.1836 10.9183L8.54268 3.39484ZM12.7512 11.5244C12.6999 11.5244 12.6495 11.5109 12.6051 11.4854C12.5607 11.4598 12.5237 11.423 12.498 11.3786L7.36317 2.52835C7.32995 2.47057 7.31743 2.40318 7.32767 2.33732C7.33791 2.27145 7.3703 2.21105 7.4195 2.16608C7.4687 2.12111 7.53176 2.09426 7.59828 2.08996C7.6648 2.08567 7.73079 2.10418 7.78537 2.14245L20.2695 10.969C20.3201 11.0049 20.3581 11.0559 20.3778 11.1148C20.3976 11.1736 20.3981 11.2372 20.3794 11.2964C20.3607 11.3555 20.3237 11.4072 20.2736 11.444C20.2236 11.4807 20.1632 11.5006 20.1012 11.5008L12.7522 11.5244H12.7512ZM10.7178 19.127L21.3587 26.6505L16.9819 19.1069L10.7178 19.127ZM22.285 27.9566C22.2262 27.9566 22.1671 27.9389 22.1161 27.9029L9.63205 19.0762C9.58136 19.0404 9.54336 18.9894 9.52355 18.9306C9.50373 18.8718 9.50314 18.8082 9.52184 18.7491C9.54054 18.6899 9.57757 18.6382 9.62759 18.6015C9.6776 18.5647 9.738 18.5448 9.80005 18.5447L17.1493 18.521H17.1502C17.2015 18.521 17.2518 18.5344 17.2963 18.56C17.3407 18.5856 17.3776 18.6224 17.4034 18.6667L22.5382 27.517C22.564 27.5615 22.5777 27.612 22.5777 27.6635C22.5778 27.7149 22.5644 27.7655 22.5387 27.81C22.513 27.8546 22.4761 27.8916 22.4315 27.9174C22.387 27.9431 22.3365 27.9567 22.285 27.9566Z" fill="#FFD454"/>
<path id="Vector_7" d="M2.68551 7.85999L7.78112 27.3143L27.2352 22.2187L22.1397 2.76438L2.68551 7.85999ZM7.57215 27.9644C7.50742 27.9644 7.4445 27.943 7.39326 27.9035C7.34201 27.8639 7.30533 27.8085 7.28897 27.7459L2.04512 7.72521C2.02547 7.65013 2.03645 7.57032 2.07564 7.50333C2.11483 7.43634 2.17902 7.38766 2.2541 7.36799L22.2746 2.12414C22.3497 2.10452 22.4295 2.1155 22.4964 2.15465C22.5634 2.19381 22.6121 2.25794 22.6319 2.33296L27.8757 22.3535C27.8953 22.4285 27.8843 22.5083 27.8452 22.5753C27.806 22.6422 27.7419 22.6909 27.6669 22.7106L7.64634 27.9547C7.62218 27.9611 7.59729 27.9644 7.57229 27.9644H7.57215Z" fill="#FFD454"/>
<path id="Vector_8" d="M17.521 11.2411L20.6284 16.6803L21.9241 3.71299L17.521 11.2411ZM20.8283 17.9134C20.7768 17.9133 20.7261 17.8997 20.6816 17.8738C20.637 17.8479 20.6 17.8106 20.5744 17.7659L16.9288 11.3845C16.9034 11.3399 16.8901 11.2893 16.8904 11.238C16.8906 11.1866 16.9044 11.1362 16.9302 11.0918L22.0961 2.25938C22.1005 2.21594 22.1146 2.17404 22.1374 2.13676C22.1601 2.09948 22.1909 2.06776 22.2275 2.04393C22.2641 2.0201 22.3055 2.00476 22.3488 1.99904C22.3921 1.99332 22.4361 1.99736 22.4776 2.01087C22.5192 2.02438 22.5571 2.04702 22.5888 2.07711C22.6204 2.10721 22.6449 2.144 22.6605 2.1848C22.676 2.2256 22.6822 2.26936 22.6787 2.31288C22.6751 2.3564 22.6619 2.39857 22.6399 2.4363L21.1199 17.65C21.1126 17.7222 21.0787 17.7891 21.0249 17.8378C20.9711 17.8864 20.9011 17.9134 20.8285 17.9134H20.8283ZM9.312 13.3651L8.01629 26.3324L12.4194 18.8043L9.312 13.3651ZM7.59176 27.9307C7.55085 27.9308 7.5104 27.9222 7.47301 27.9056C7.43561 27.8891 7.40211 27.8648 7.37466 27.8345C7.3472 27.8042 7.32641 27.7684 7.31362 27.7296C7.30083 27.6907 7.29632 27.6496 7.30039 27.6089L8.82059 12.3953C8.82693 12.3336 8.85266 12.2756 8.89408 12.2295C8.93549 12.1835 8.99046 12.1517 9.05107 12.1388C9.11167 12.126 9.1748 12.1326 9.23136 12.1579C9.28793 12.1832 9.33502 12.2258 9.36585 12.2795L13.0115 18.6609C13.0633 18.7516 13.0627 18.8633 13.01 18.9536L7.8442 27.786C7.81839 27.8301 7.7815 27.8667 7.73719 27.8921C7.69288 27.9175 7.64269 27.9309 7.59161 27.9309L7.59176 27.9307Z" fill="#FFD454"/>
</g>
<defs>
<clipPath id="clip0_350_114">
<rect width="30" height="30" fill="white"/>
</clipPath>
</defs>
</svg>
