<svg width="325" height="64" viewBox="0 0 325 64" fill="none" xmlns="http://www.w3.org/2000/svg">
<g filter="url(#filter0_d_350_112)">
<path d="M4 24.1231C4 10.8003 16.1899 0 31.227 0H293.773C308.81 0 321 10.8003 321 24.1231V31.8769C321 45.1997 308.81 56 293.773 56H31.227C16.1899 56 4 45.1997 4 31.8769V24.1231Z" fill="#1F2833"/>
<path d="M5.9 24.1231C5.9 12.0592 17.0166 1.9 31.227 1.9H293.773C307.983 1.9 319.1 12.0592 319.1 24.1231V31.8769C319.1 43.9408 307.983 54.1 293.773 54.1H31.227C17.0166 54.1 5.9 43.9408 5.9 31.8769V24.1231Z" stroke="#FFD454" stroke-width="3.8"/>
</g>
<defs>
<filter id="filter0_d_350_112" x="0" y="0" width="325" height="64" filterUnits="userSpaceOnUse" color-interpolation-filters="sRGB">
<feFlood flood-opacity="0" result="BackgroundImageFix"/>
<feColorMatrix in="SourceAlpha" type="matrix" values="0 0 0 0 0 0 0 0 0 0 0 0 0 0 0 0 0 0 127 0" result="hardAlpha"/>
<feOffset dy="4"/>
<feGaussianBlur stdDeviation="2"/>
<feComposite in2="hardAlpha" operator="out"/>
<feColorMatrix type="matrix" values="0 0 0 0 0 0 0 0 0 0 0 0 0 0 0 0 0 0 0.25 0"/>
<feBlend mode="normal" in2="BackgroundImageFix" result="effect1_dropShadow_350_112"/>
<feBlend mode="normal" in="SourceGraphic" in2="effect1_dropShadow_350_112" result="shape"/>
</filter>
</defs>
</svg>
