<svg class="svg-icon" style="width: 1em; height: 1em;vertical-align: middle;fill: currentColor;overflow: hidden;" viewBox="0 0 1024 1024" version="1.1" xmlns="http://www.w3.org/2000/svg"><path d="M844.409359 338.763784h-508.354018l-22.709258-49.377009c-36.043133-78.753204-91.462055-81.878332-158.548118-85.836826-8.333672-0.416684-16.875687-1.041709-26.876093-1.875076V233.342828c7.916989 0.625025 16.459003 1.041709 25.001017 1.666735 56.668973 3.333469 103.54588 6.041913 131.672025 67.502746l180.215666 396.89115 261.677314-0.208342v-31.251272l-240.218108-0.208341-28.334486-61.877518h268.344252l97.71231-168.756867 17.709054-30.626246 27.70946-47.918617L895.869786 312.512716h-36.668158l-1.041709 2.29176-13.75056 23.959308z" fill="#2196F3" /><path d="M592.107426 699.195117h134.58881l-0.208342-31.459613h-134.380468z" fill="#2196F3" /><path d="M844.409359 338.763784H592.107426v266.88586h134.172126l97.71231-168.756867h0.208341l17.709054-30.626246 27.709461-47.918616h-0.208342l26.667752-46.043541h-36.668159l-1.25005 2.29176z" fill="#64B5F6" /><path d="M487.103154 708.987182c-15.625636 0-29.792879 6.458596-40.20997 16.667345-10.208749 10.208749-16.667345 24.584334-16.667345 40.209969s6.458596 29.792879 16.667345 40.20997c10.208749 10.208749 24.375992 16.667345 40.20997 16.667345 15.625636 0 29.792879-6.458596 40.209969-16.667345 10.208749-10.208749 16.667345-24.584334 16.667345-40.20997s-6.458596-29.792879-16.667345-40.209969-24.584334-16.667345-40.209969-16.667345z m-17.709054 38.959919c4.58352-4.58352 10.833774-7.291963 17.709054-7.291964s13.333876 2.916785 17.709054 7.291964c4.58352 4.58352 7.291963 10.833774 7.291963 17.709054s-2.708444 13.333876-7.291963 17.709054c-4.58352 4.58352-10.833774 7.291963-17.709054 7.291963s-13.125534-2.708444-17.709054-7.291963-7.291963-10.833774-7.291964-17.709054c-0.208342-6.87528 2.708444-13.125534 7.291964-17.709054zM700.445168 708.987182c-15.625636 0-29.792879 6.458596-40.20997 16.667345-10.208749 10.208749-16.667345 24.584334-16.667344 40.209969s6.458596 29.792879 16.667344 40.20997c10.208749 10.208749 24.584334 16.667345 40.20997 16.667345s29.792879-6.458596 40.209969-16.667345c10.208749-10.208749 16.667345-24.584334 16.667345-40.20997s-6.458596-29.792879-16.667345-40.209969-24.584334-16.667345-40.209969-16.667345z m-17.709054 38.959919c4.58352-4.58352 10.833774-7.291963 17.709054-7.291964s13.125534 2.916785 17.709054 7.291964c4.58352 4.58352 7.291963 10.833774 7.291963 17.709054s-2.916785 13.333876-7.291963 17.709054c-4.58352 4.58352-10.833774 7.291963-17.709054 7.291963s-13.125534-2.708444-17.709054-7.291963-7.291963-10.833774-7.291963-17.709054 2.708444-13.125534 7.291963-17.709054z" fill="#616161" /></svg>