<svg width="50" height="50" viewBox="0 0 50 50" fill="none" xmlns="http://www.w3.org/2000/svg">
<g id="sales-3 1">
<path id="Vector" d="M41.2309 16.5412H16.409L15.3001 14.1302C13.5402 10.2848 10.8342 10.1323 7.55849 9.93897C7.15158 9.91862 6.73449 9.8881 6.24619 9.84741V11.3937C6.63276 11.4242 7.04985 11.4446 7.46694 11.4751C10.234 11.6378 12.5229 11.7701 13.8962 14.7711L22.6958 34.1506L35.473 34.1404V32.6145L23.7436 32.6043L22.3601 29.5829H35.4629L40.234 21.3428L41.0987 19.8474L42.4517 17.5076L43.7436 15.2594H41.9532L41.9023 15.3713L41.2309 16.5412Z" fill="#FFD454"/>
<path id="Vector_2" d="M28.9115 34.1404H35.4832L35.473 32.6042H28.9115V34.1404Z" fill="#DEC475"/>
<path id="Vector_3" d="M41.2309 16.5412H28.9115V29.5728H35.4629L40.234 21.3327H40.2442L41.1089 19.8373L42.4619 17.4975H42.4517L43.7538 15.2493H41.9634L41.9023 15.3612L41.2309 16.5412Z" fill="#DEC475"/>
<path id="Vector_4" d="M23.7843 34.6185C23.0214 34.6185 22.3296 34.9339 21.821 35.4324C21.3225 35.9308 21.0071 36.6328 21.0071 37.3957C21.0071 38.1587 21.3225 38.8505 21.821 39.3591C22.3194 39.8576 23.0112 40.173 23.7843 40.173C24.5473 40.173 25.2391 39.8576 25.7477 39.3591C26.2462 38.8606 26.5616 38.1587 26.5616 37.3957C26.5616 36.6328 26.2462 35.941 25.7477 35.4324C25.2492 34.9237 24.5473 34.6185 23.7843 34.6185ZM22.9196 36.5209C23.1434 36.2971 23.4486 36.1648 23.7843 36.1648C24.12 36.1648 24.4354 36.3072 24.649 36.5209C24.8728 36.7447 25.0051 37.0499 25.0051 37.3856C25.0051 37.7213 24.8728 38.0366 24.649 38.2503C24.4252 38.4741 24.12 38.6063 23.7843 38.6063C23.4486 38.6063 23.1434 38.4741 22.9196 38.2503C22.6958 38.0265 22.5636 37.7213 22.5636 37.3856C22.5534 37.0499 22.6958 36.7447 22.9196 36.5209ZM34.2014 34.6185C33.4385 34.6185 32.7467 34.9339 32.238 35.4324C31.7396 35.9308 31.4242 36.6328 31.4242 37.3957C31.4242 38.1587 31.7396 38.8505 32.238 39.3591C32.7365 39.8576 33.4385 40.173 34.2014 40.173C34.9644 40.173 35.6562 39.8576 36.1648 39.3591C36.6633 38.8606 36.9786 38.1587 36.9786 37.3957C36.9786 36.6328 36.6633 35.941 36.1648 35.4324C35.6663 34.9237 34.9644 34.6185 34.2014 34.6185ZM33.3367 36.5209C33.5605 36.2971 33.8657 36.1648 34.2014 36.1648C34.5371 36.1648 34.8423 36.3072 35.0661 36.5209C35.2899 36.7447 35.4222 37.0499 35.4222 37.3856C35.4222 37.7213 35.2798 38.0366 35.0661 38.2503C34.8423 38.4741 34.5371 38.6063 34.2014 38.6063C33.8657 38.6063 33.5605 38.4741 33.3367 38.2503C33.1129 38.0265 32.9807 37.7213 32.9807 37.3856C32.9807 37.0499 33.1129 36.7447 33.3367 36.5209Z" fill="#D9D9D9"/>
</g>
</svg>
