<svg width="60" height="60" viewBox="0 0 60 60" fill="none" xmlns="http://www.w3.org/2000/svg">
<g id="tap-customer-value 1">
<path id="Vector" d="M29.9707 42.1582C23.5605 42.1582 18.3457 36.9434 18.3457 30.5332C18.3457 24.123 23.5605 18.9082 29.9707 18.9082C36.3809 18.9082 41.6016 24.1172 41.6016 30.5273C41.6016 36.9375 36.3809 42.1582 29.9707 42.1582Z" fill="#DEC475"/>
<path id="Vector_2" d="M29.9707 19.4531C36.0879 19.4531 41.0449 24.4102 41.0449 30.5273C41.0449 36.6445 36.0879 41.6016 29.9707 41.6016C23.8535 41.6016 18.8965 36.6445 18.8965 30.5273C18.8965 24.4102 23.8535 19.4531 29.9707 19.4531ZM29.9707 18.3457C23.2559 18.3457 17.7891 23.8125 17.7891 30.5273C17.7891 37.2422 23.2559 42.709 29.9707 42.709C36.6855 42.709 42.1523 37.248 42.1523 30.5273C42.1523 23.8066 36.6855 18.3457 29.9707 18.3457Z" fill="#FFD454" fill-opacity="0.54"/>
<path id="Vector_3" d="M18.8965 30.5273C18.8965 31.9816 19.1829 33.4217 19.7395 34.7653C20.296 36.1088 21.1117 37.3297 22.14 38.358C23.1684 39.3863 24.3892 40.2021 25.7328 40.7586C27.0764 41.3151 28.5164 41.6016 29.9707 41.6016C31.425 41.6016 32.865 41.3151 34.2086 40.7586C35.5522 40.2021 36.773 39.3863 37.8014 38.358C38.8297 37.3297 39.6454 36.1088 40.2019 34.7653C40.7585 33.4217 41.0449 31.9816 41.0449 30.5273C41.0449 29.0731 40.7585 27.633 40.2019 26.2894C39.6454 24.9458 38.8297 23.725 37.8014 22.6967C36.773 21.6684 35.5522 20.8526 34.2086 20.2961C32.865 19.7396 31.425 19.4531 29.9707 19.4531C28.5164 19.4531 27.0764 19.7396 25.7328 20.2961C24.3892 20.8526 23.1684 21.6684 22.14 22.6967C21.1117 23.725 20.296 24.9458 19.7395 26.2894C19.1829 27.633 18.8965 29.0731 18.8965 30.5273Z" fill="#FFD454"/>
<path id="Vector_4" d="M21.8613 30.5273C21.8613 31.5777 22.0711 32.6177 22.4786 33.5881C22.8862 34.5584 23.4835 35.4401 24.2365 36.1828C24.9895 36.9255 25.8835 37.5146 26.8674 37.9166C27.8513 38.3185 28.9058 38.5254 29.9707 38.5254C31.0356 38.5254 32.0902 38.3185 33.074 37.9166C34.0579 37.5146 34.9519 36.9255 35.7049 36.1828C36.4579 35.4401 37.0553 34.5584 37.4628 33.5881C37.8703 32.6177 38.0801 31.5777 38.0801 30.5273C38.0801 28.4061 37.2257 26.3718 35.7049 24.8719C34.1841 23.3719 32.1214 22.5293 29.9707 22.5293C27.82 22.5293 25.7573 23.3719 24.2365 24.8719C22.7157 26.3718 21.8613 28.4061 21.8613 30.5273Z" fill="#DEC475" fill-opacity="0.57"/>
<path id="Vector_5" d="M24.9902 30.5273C24.9902 31.8482 25.515 33.115 26.449 34.0491C27.383 34.9831 28.6498 35.5078 29.9707 35.5078C31.2916 35.5078 32.5584 34.9831 33.4924 34.0491C34.4264 33.115 34.9512 31.8482 34.9512 30.5273C34.9512 29.2064 34.4264 27.9396 33.4924 27.0056C32.5584 26.0716 31.2916 25.5469 29.9707 25.5469C28.6498 25.5469 27.383 26.0716 26.449 27.0056C25.515 27.9396 24.9902 29.2064 24.9902 30.5273Z" fill="#FFD454"/>
<path id="Vector_6" d="M27.7559 30.5273C27.7559 31.1148 27.9892 31.6781 28.4046 32.0935C28.8199 32.5088 29.3833 32.7422 29.9707 32.7422C30.5581 32.7422 31.1215 32.5088 31.5368 32.0935C31.9522 31.6781 32.1855 31.1148 32.1855 30.5273C32.1855 29.9399 31.9522 29.3766 31.5368 28.9612C31.1215 28.5458 30.5581 28.3125 29.9707 28.3125C29.3833 28.3125 28.8199 28.5458 28.4046 28.9612C27.9892 29.3766 27.7559 29.9399 27.7559 30.5273Z" fill="#DEC475"/>
<path id="Vector_7" d="M41.2617 21.1816L39.7207 20.7656L39.3047 19.2188C39.1934 18.8086 38.6777 18.668 38.3789 18.9727L35.3672 21.9844C35.2793 22.0723 35.2324 22.1836 35.2148 22.3008C35.2148 22.3125 35.209 22.3242 35.209 22.3301C35.2031 22.3945 35.2031 22.4531 35.2207 22.5176L35.6309 24.0469L29.6543 30.0234C29.4316 30.2461 29.4316 30.6035 29.6543 30.8262C29.7656 30.9375 29.9121 30.9902 30.0527 30.9902C30.1934 30.9902 30.3398 30.9375 30.4512 30.8262L36.4277 24.8496L37.957 25.2598C38.1504 25.3125 38.3496 25.2539 38.4902 25.1191L41.502 22.1074C41.8066 21.8027 41.6719 21.293 41.2617 21.1816Z" fill="#D8D4C8"/>
</g>
</svg>
