<svg width="53" height="53" viewBox="0 0 53 53" fill="none" xmlns="http://www.w3.org/2000/svg">
<g id="touch-3 1">
<path id="Vector" d="M19.5482 35.881C16.3592 34.3139 13.7946 31.7133 12.2721 28.5028C10.7495 25.2922 10.3586 21.6608 11.1631 18.1998C11.9676 14.7388 13.92 11.6521 16.7024 9.44221C19.4849 7.23232 22.9335 6.02944 26.4868 6.02944C30.04 6.02944 33.4886 7.23232 36.2711 9.44221C39.0536 11.6521 41.006 14.7388 41.8104 18.1998C42.6149 21.6608 42.224 25.2922 40.7015 28.5028C39.1789 31.7133 36.6143 34.3139 33.4253 35.881" fill="#FFD454"/>
<path id="Vector_2" d="M21.359 33.1603C19.0002 32.002 17.103 30.0793 15.9765 27.7052C14.8499 25.331 14.5604 22.6455 15.1549 20.0858C15.7495 17.5261 17.1932 15.2431 19.2508 13.6086C21.3085 11.9741 23.8589 11.0844 26.4867 11.0844C29.1146 11.0844 31.665 11.9741 33.7227 13.6086C35.7803 15.2431 37.224 17.5261 37.8186 20.0858C38.4131 22.6455 38.1236 25.331 36.997 27.7052C35.8704 30.0793 33.9733 32.002 31.6145 33.1603C31.4907 33.2203 31.3546 33.2506 31.217 33.2487" fill="#FFA742"/>
<path id="Vector_3" d="M21.9067 30.8283C19.7964 29.7927 18.099 28.073 17.0909 25.9495C16.0828 23.8259 15.8235 21.4236 16.3551 19.1338C16.8867 16.844 18.1779 14.8017 20.0185 13.3395C21.8591 11.8773 24.1405 11.0813 26.4912 11.0813C28.8419 11.0813 31.1233 11.8773 32.9638 13.3395C34.8044 14.8017 36.0957 16.844 36.6273 19.1338C37.1589 21.4236 36.8995 23.8259 35.8914 25.9495C34.8833 28.073 33.1859 29.7927 31.0757 30.8283" fill="#D9D9D9"/>
<path id="Vector_4" d="M26.5 27.1007C24.3418 27.1013 22.2267 26.4965 20.3951 25.3551C18.5634 24.2136 17.0887 22.5813 16.1385 20.6435C16.1385 20.9262 16.0943 21.2 16.0943 21.5268C16.0999 23.4649 16.6471 25.3628 17.6742 27.0064C18.7012 28.65 20.1672 29.9737 21.9067 30.8283H31.0757C32.8239 29.9713 34.2968 28.6413 35.3273 26.9893C36.3578 25.3374 36.9046 23.4297 36.9057 21.4827C36.9057 21.1912 36.9057 20.9173 36.8615 20.5993C35.9175 22.5454 34.4455 24.1868 32.6134 25.3364C30.7813 26.4859 28.6629 27.0973 26.5 27.1007Z" fill="#D9D9D9"/>
<path id="Vector_5" d="M19.0005 46.428C19.0971 46.5953 19.2362 46.7341 19.4038 46.8303C19.5713 46.9265 19.7613 46.9766 19.9545 46.9757H39.1228C39.2682 46.9768 39.4123 46.9491 39.5468 46.894C39.6813 46.8389 39.8035 46.7576 39.9062 46.6549C40.009 46.5521 40.0903 46.4299 40.1454 46.2954C40.2004 46.1609 40.2282 46.0168 40.227 45.8715V38.9903C40.2271 38.3911 39.9922 37.8158 39.5726 37.388C39.1531 36.9602 38.5824 36.7141 37.9833 36.7025C37.3773 36.7048 36.7967 36.9466 36.3682 37.3752C35.9396 37.8037 35.6978 38.3843 35.6955 38.9903V36.3403C35.6955 36.0399 35.6364 35.7423 35.5215 35.4647C35.4065 35.1871 35.238 34.9348 35.0255 34.7224C34.8131 34.5099 34.5609 34.3413 34.2833 34.2263C34.0057 34.1113 33.7081 34.0521 33.4077 34.0521C33.1072 34.0521 32.8097 34.1113 32.5321 34.2263C32.2545 34.3413 32.0023 34.5099 31.7898 34.7224C31.5774 34.9348 31.4088 35.1871 31.2939 35.4647C31.1789 35.7423 31.1198 36.0399 31.1198 36.3403V21.9155C31.1199 21.5669 31.0403 21.2229 30.887 20.9097C30.7338 20.5966 30.5111 20.3226 30.2358 20.1087C29.9606 19.8948 29.64 19.7466 29.2988 19.6755C28.9575 19.6044 28.6045 19.6122 28.2667 19.6983C27.7542 19.8311 27.3013 20.1324 26.9808 20.5538C26.6604 20.9752 26.491 21.4922 26.5 22.0215V26.4382C26.5022 26.1354 26.443 25.8353 26.3261 25.5559C26.2092 25.2766 26.037 25.0238 25.8198 24.8128C25.5901 24.5822 25.3134 24.4037 25.0086 24.2893C24.7038 24.175 24.3779 24.1276 24.0532 24.1503C23.4645 24.208 22.9192 24.4856 22.5262 24.9278C22.1332 25.3699 21.9215 25.9439 21.9332 26.5353V42.4353L20.4315 39.7853C20.1537 39.2817 19.7009 38.8974 19.1588 38.7053C18.6167 38.5132 18.0229 38.5266 17.49 38.743C17.202 38.8725 16.9443 39.0609 16.7335 39.296C16.5227 39.5312 16.3635 39.8078 16.2662 40.1082C16.1688 40.4086 16.1354 40.7261 16.1682 41.0402C16.201 41.3543 16.2992 41.658 16.4565 41.9318L19.0005 46.428Z" fill="#FFDEAD"/>
<path id="Vector_6" d="M37.63 14.5573C37.746 14.5573 37.8609 14.5345 37.968 14.4901C38.0752 14.4457 38.1726 14.3806 38.2546 14.2986C38.3366 14.2166 38.4017 14.1192 38.4461 14.012C38.4905 13.9049 38.5133 13.79 38.5133 13.674V12.7907C40.5971 15.6475 41.5902 19.1555 41.3132 22.6807C41.0362 26.2059 39.5073 29.5157 37.0028 32.012C36.921 32.0944 36.8563 32.192 36.8122 32.2994C36.7682 32.4068 36.7458 32.5218 36.7462 32.6379C36.7466 32.7539 36.7698 32.8688 36.8146 32.9759C36.8594 33.0829 36.9249 33.1801 37.0072 33.2619C37.0896 33.3437 37.1873 33.4085 37.2946 33.4525C37.402 33.4965 37.517 33.519 37.6331 33.5186C37.7492 33.5182 37.864 33.4949 37.9711 33.4501C38.0782 33.4053 38.1754 33.3399 38.2572 33.2575C41.1307 30.3879 42.8519 26.5639 43.0945 22.5101C43.337 18.4563 42.0842 14.4543 39.5733 11.2625H40.9425C41.1767 11.2624 41.4014 11.1694 41.567 11.0037C41.7326 10.8381 41.8256 10.6134 41.8256 10.3792C41.8256 10.1449 41.7326 9.92028 41.567 9.75463C41.4014 9.58898 41.1767 9.49589 40.9425 9.49583H37.63C37.3957 9.49583 37.171 9.5889 37.0054 9.75456C36.8397 9.92021 36.7467 10.1449 36.7467 10.3792V13.6917C36.7513 13.9229 36.8464 14.143 37.0115 14.3049C37.1767 14.4667 37.3987 14.5574 37.63 14.5573ZM16.2622 32.6215V29.309C16.2621 29.0748 16.169 28.8501 16.0034 28.6845C15.8377 28.5189 15.6131 28.4259 15.3788 28.4259C15.1446 28.4259 14.9199 28.5189 14.7543 28.6845C14.5886 28.8501 14.4956 29.0748 14.4955 29.309V30.1923C12.4082 27.3358 11.4122 23.8265 11.6876 20.2994C11.963 16.7722 13.4917 13.4601 15.9972 10.9622C16.1617 10.7967 16.254 10.5728 16.254 10.3394C16.254 10.1061 16.1617 9.88217 15.9972 9.71667C15.915 9.63387 15.8173 9.56816 15.7097 9.52331C15.6021 9.47847 15.4866 9.45538 15.37 9.45538C15.2534 9.45538 15.1379 9.47847 15.0303 9.52331C14.9226 9.56816 14.8249 9.63387 14.7428 9.71667C11.8638 12.5887 10.1394 16.4177 9.89674 20.4771C9.65412 24.5365 10.9102 28.5437 13.4267 31.7382H12.0663C11.8321 31.7382 11.6074 31.8312 11.4417 31.9969C11.2761 32.1625 11.183 32.3872 11.183 32.6215C11.183 32.8558 11.2761 33.0805 11.4417 33.2461C11.6074 33.4118 11.8321 33.5048 12.0663 33.5048H15.3788C15.6131 33.5048 15.8378 33.4118 16.0034 33.2461C16.1691 33.0805 16.2622 32.8558 16.2622 32.6215Z" fill="#3D3D63"/>
<path id="Vector_7" d="M37.9833 35.775C37.4961 35.773 37.0151 35.8849 36.5788 36.1018C36.5491 35.28 36.2022 34.5017 35.611 33.9302C35.0197 33.3587 34.23 33.0384 33.4077 33.0367C32.9204 33.0347 32.4395 33.1466 32.0032 33.3635V31.3672C34.1934 30.1559 35.9191 28.251 36.9087 25.9521C37.8984 23.6532 38.096 21.0905 37.4705 18.667C36.845 16.2436 35.4319 14.0967 33.4532 12.5639C31.4746 11.0311 29.0427 10.1993 26.5398 10.1993C24.0368 10.1993 21.6049 11.0311 19.6263 12.5639C17.6476 14.0967 16.2345 16.2436 15.609 18.667C14.9835 21.0905 15.1811 23.6532 16.1708 25.9521C17.1605 28.251 18.8861 30.1559 21.0763 31.3672V39.1847C20.6595 38.5529 20.0347 38.0869 19.3103 37.8675C18.5859 37.6481 17.8075 37.6891 17.1102 37.9833C16.7117 38.1632 16.3552 38.4244 16.0637 38.7501C15.7721 39.0759 15.5519 39.459 15.4171 39.8749C15.2824 40.2908 15.2361 40.7303 15.2812 41.1652C15.3263 41.6 15.4619 42.0206 15.6792 42.4L18.232 46.8167C18.4074 47.1186 18.6585 47.3695 18.9606 47.5446C19.2627 47.7197 19.6053 47.8128 19.9545 47.8148H39.1228C39.65 47.8148 40.1555 47.6054 40.5282 47.2327C40.9009 46.86 41.1103 46.3544 41.1103 45.8273V38.9462C41.1104 38.1127 40.7824 37.3127 40.1972 36.7193C39.612 36.1258 38.8167 35.7866 37.9833 35.775ZM16.9777 21.4915C16.9815 19.8578 17.4056 18.2526 18.2092 16.8303C19.0127 15.4079 20.1687 14.2161 21.566 13.3697C22.9632 12.5232 24.5548 12.0504 26.1875 11.9968C27.8203 11.9432 29.4395 12.3106 30.8892 13.0636C32.339 13.8166 33.5706 14.93 34.4657 16.2966C35.3609 17.6632 35.8893 19.2371 36.0003 20.867C36.1113 22.4969 35.8011 24.128 35.0995 25.6033C34.398 27.0787 33.3286 28.3487 31.9943 29.2913V21.5887C31.9943 20.7476 31.6602 19.941 31.0655 19.3463C30.4708 18.7516 29.6642 18.4175 28.8232 18.4175C27.9821 18.4175 27.1755 18.7516 26.5808 19.3463C25.9861 19.941 25.652 20.7476 25.652 21.5887V23.3023C25.203 23.0759 24.7062 22.9608 24.2033 22.9667C23.7869 22.9667 23.3745 23.0487 22.9898 23.2081C22.605 23.3674 22.2555 23.601 21.961 23.8955C21.6665 24.1899 21.4329 24.5395 21.2736 24.9243C21.1142 25.309 21.0322 25.7214 21.0322 26.1378V29.2737C19.777 28.4015 18.7523 27.2377 18.046 25.8822C17.3398 24.5266 16.9732 23.0199 16.9777 21.4915ZM39.3437 45.8803C39.3437 45.9389 39.3204 45.9951 39.279 46.0365C39.2376 46.0779 39.1814 46.1012 39.1228 46.1012H19.9545C19.9159 46.1016 19.8779 46.0911 19.845 46.0708C19.8122 46.0504 19.7858 46.0211 19.769 45.9863L17.2073 41.5697C17.1106 41.4044 17.0503 41.2204 17.0305 41.03C17.0107 40.8396 17.0318 40.6471 17.0925 40.4655C17.15 40.2812 17.2459 40.1112 17.3738 39.9666C17.5016 39.8219 17.6587 39.706 17.8345 39.6263C17.9963 39.5566 18.1706 39.5205 18.3468 39.5203C18.613 39.5269 18.8728 39.6029 19.1006 39.7408C19.3284 39.8787 19.5161 40.0737 19.6453 40.3065L21.147 42.9565C21.2434 43.1267 21.3936 43.26 21.574 43.3356C21.7544 43.4113 21.9547 43.4249 22.1437 43.3744C22.3326 43.3238 22.4995 43.212 22.6181 43.0565C22.7366 42.9009 22.8002 42.7104 22.7988 42.5148V26.1467C22.8269 25.7923 22.9875 25.4615 23.2487 25.2202C23.5098 24.979 23.8522 24.845 24.2078 24.845C24.5633 24.845 24.9057 24.979 25.1668 25.2202C25.428 25.4615 25.5886 25.7923 25.6167 26.1467V40.015C25.6167 40.2493 25.7097 40.4739 25.8754 40.6396C26.041 40.8053 26.2657 40.8983 26.5 40.8983C26.7343 40.8983 26.959 40.8053 27.1246 40.6396C27.2903 40.4739 27.3833 40.2493 27.3833 40.015V21.5887C27.3833 21.2162 27.5313 20.8589 27.7947 20.5955C28.0581 20.3321 28.4153 20.1842 28.7878 20.1842C29.1603 20.1842 29.5176 20.3321 29.781 20.5955C30.0444 20.8589 30.1923 21.2162 30.1923 21.5887V36.2167C30.1924 36.4509 30.2855 36.6755 30.4511 36.8411C30.6168 37.0067 30.8414 37.0998 31.0757 37.0998C31.3099 37.0998 31.5346 37.0067 31.7002 36.8411C31.8659 36.6755 31.9589 36.4509 31.959 36.2167C31.959 35.8442 32.107 35.4869 32.3704 35.2235C32.6338 34.9601 32.991 34.8122 33.3635 34.8122C33.736 34.8122 34.0932 34.9601 34.3566 35.2235C34.62 35.4869 34.768 35.8442 34.768 36.2167V38.955C34.7681 39.1892 34.8612 39.4139 35.0268 39.5795C35.1925 39.7451 35.4171 39.8381 35.6513 39.8381C35.8856 39.8381 36.1102 39.7451 36.2759 39.5795C36.4415 39.4139 36.5346 39.1892 36.5347 38.955C36.5347 38.5825 36.6826 38.2253 36.946 37.9619C37.2094 37.6985 37.5667 37.5505 37.9392 37.5505C38.3117 37.5505 38.6689 37.6985 38.9323 37.9619C39.1957 38.2253 39.3437 38.5825 39.3437 38.955V45.8803Z" fill="#3D3D63"/>
</g>
</svg>
