<svg width="50" height="50" viewBox="0 0 50 50" fill="none" xmlns="http://www.w3.org/2000/svg">
<g id="user-groups 1">
<path id="Vector" d="M37.7009 12.2991C34.4557 9.05392 29.9593 7.03967 25.0051 7.03967C20.0509 7.03967 15.5544 9.05392 12.2991 12.2991C9.05392 15.5544 7.03967 20.0407 7.03967 25.0051C7.03967 29.9695 9.05392 34.4557 12.2991 37.7009C15.5443 40.9461 20.0407 42.9603 24.9949 42.9603C29.9593 42.9603 34.4456 40.9461 37.6907 37.7009C40.9359 34.4557 42.9501 29.9593 42.9501 25.0051C42.9501 20.0509 40.9563 15.5544 37.7009 12.2991Z" fill="#F9A825"/>
<path id="Vector_2" d="M37.1007 12.9094C34.0081 9.81687 29.7253 7.90436 25.0051 7.90436C20.2848 7.90436 16.002 9.81687 12.9095 12.9094C9.81689 16.002 7.90437 20.2848 7.90437 25.0051C7.90437 29.7253 9.81689 34.0081 12.9095 37.1007C16.002 40.1933 20.2848 42.1058 25.0051 42.1058C29.7253 42.1058 34.0081 40.1933 37.1007 37.1007C40.1933 34.0081 42.1058 29.7253 42.1058 25.0051C42.1058 20.2747 40.1933 16.002 37.1007 12.9094Z" fill="#FFC1C1" fill-opacity="0.71"/>
<path id="Vector_3" d="M15.7681 31.6276C14.9441 30.8443 14.4354 29.7457 14.3947 28.5351H11.3632C10.2442 28.5351 9.21669 28.942 8.41302 29.6032C9.06409 32.0956 10.2747 34.3743 11.882 36.2869C12.1261 34.0793 13.6928 32.2482 15.7681 31.6276ZM12.8891 28.2909C13.4385 28.2909 13.9471 28.1688 14.4151 27.945C14.5575 26.5412 15.3611 25.3408 16.4903 24.6287C16.4598 22.6653 14.8627 21.0783 12.8891 21.0783C10.8952 21.0783 9.2879 22.6958 9.2879 24.6795C9.2879 26.6633 10.9054 28.2909 12.8891 28.2909Z" fill="#D9D9D9"/>
<path id="Vector_4" d="M26.7345 35.7681H23.6724C21.1292 35.7681 19.0539 37.8433 19.0539 40.3764V41.3327C20.9054 42.0143 22.8993 42.3907 24.9949 42.3907C27.233 42.3907 29.3795 41.9634 31.3428 41.1801V40.3866C31.353 37.8332 29.2777 35.7681 26.7345 35.7681Z" fill="#00897B"/>
<path id="Vector_5" d="M22.1261 35.1373C21.3123 34.354 20.7935 33.2655 20.7528 32.0651C20.6409 32.0549 20.529 32.0447 20.4171 32.0447H17.3652C14.822 32.0447 12.7569 34.12 12.7569 36.6633V37.2431L12.8891 37.3754C14.4151 38.9013 16.2157 40.1322 18.2197 40.9969V40.3865C18.2096 37.9145 19.8576 35.8189 22.1261 35.1373Z" fill="#FFD454"/>
<path id="Vector_6" d="M38.6368 28.4232H35.6053C35.5748 29.6338 35.0559 30.7325 34.2319 31.5158C36.3479 32.1465 37.9247 34.0183 38.1282 36.2869C39.7558 34.354 40.9664 32.0448 41.6175 29.5219C40.8138 28.8301 39.7762 28.4232 38.6368 28.4232Z" fill="#D9D9D9"/>
<path id="Vector_7" d="M32.6958 32.0447H29.6643C29.6338 33.2553 29.115 34.354 28.2909 35.1373C30.5493 35.8087 32.2075 37.9044 32.2075 40.3865V40.8138C34.0488 39.9593 35.707 38.7894 37.1211 37.3754L37.3042 37.1922V36.6633C37.3143 34.12 35.2391 32.0447 32.6958 32.0447Z" fill="#FFD454"/>
<path id="Vector_8" d="M28.8098 31.9227C28.8098 33.9166 27.1923 35.5239 25.2085 35.5239C23.2146 35.5239 21.6073 33.9064 21.6073 31.9227C21.6073 29.9288 23.2248 28.3215 25.2085 28.3215C27.2024 28.3215 28.8098 29.9288 28.8098 31.9227Z" fill="#00897B"/>
<path id="Vector_9" d="M33.5097 24.5168C34.649 25.2289 35.4425 26.4293 35.5849 27.8332C36.0427 28.0468 36.5615 28.1689 37.1109 28.1689C39.1048 28.1689 40.7121 26.5615 40.7121 24.5677C40.7121 22.5738 39.1048 20.9664 37.1109 20.9664C35.1373 20.9664 33.5402 22.5534 33.5097 24.5168Z" fill="#D9D9D9"/>
<path id="Vector_10" d="M18.8912 24.5981C16.8973 24.5981 15.2899 26.2156 15.2899 28.1994C15.2899 30.1831 16.8973 31.8006 18.8912 31.8006C19.5931 31.8006 20.2543 31.5971 20.8037 31.2411C20.9766 30.0915 21.5972 29.0844 22.4822 28.4028C22.4822 28.3316 22.4924 28.2706 22.4924 28.1994C22.4924 26.2055 20.8749 24.5981 18.8912 24.5981ZM31.1699 31.8006C33.1638 31.8006 34.7711 30.1933 34.7711 28.1994C34.7711 26.2055 33.1536 24.5981 31.1699 24.5981C29.1963 24.5981 27.5992 26.1851 27.5687 28.1485C28.708 28.8606 29.5015 30.061 29.6439 31.4649C30.1119 31.6785 30.6206 31.8006 31.1699 31.8006Z" fill="#FFD454"/>
</g>
</svg>
