<svg class="svg-icon" style="width: 1em; height: 1em;vertical-align: middle;fill: currentColor;overflow: hidden;" viewBox="0 0 1024 1024" version="1.1" xmlns="http://www.w3.org/2000/svg"><path d="M772.114751 251.885249C705.653713 185.424212 613.566633 144.172533 512.104171 144.172533S318.554629 185.424212 251.885249 251.885249C185.424212 318.554629 144.172533 410.433367 144.172533 512.104171c0 101.670804 41.251679 193.549542 107.712716 260.01058 66.461038 66.461038 158.548118 107.712716 260.01058 107.712716 101.670804 0 193.549542-41.251679 260.01058-107.712716 66.461038-66.461038 107.712716-158.548118 107.712716-260.01058s-40.834995-193.549542-107.504374-260.218922z" fill="#00897B" /><path d="M759.822584 264.385758c-63.33591-63.33591-151.047813-102.504171-247.718413-102.504171-96.6706 0-184.382503 39.16826-247.718413 102.504171-63.33591 63.33591-102.504171 151.047813-102.504171 247.718413 0 96.6706 39.16826 184.382503 102.504171 247.718413 63.33591 63.33591 151.047813 102.504171 247.718413 102.504171 96.6706 0 184.382503-39.16826 247.718413-102.504171 63.33591-63.33591 102.504171-151.047813 102.504171-247.718413 0-96.878942-39.16826-184.382503-102.504171-247.718413z" fill="#E0F2F1" /><path d="M322.929807 647.73469c-16.875687-16.042319-27.292777-38.543235-28.126145-63.335911h-62.085859c-22.917599 0-43.960122 8.333672-60.419125 21.87589 13.333876 51.043744 38.126551 97.712309 71.044557 136.88057 5.000203-45.210173 37.084842-82.711699 79.586572-95.420549zM263.969074 579.398576c11.250458 0 21.667548-2.500102 31.251272-7.083622 2.916785-28.75117 19.375788-53.335504 42.501729-67.91943-0.625025-40.209969-33.33469-72.711292-73.753001-72.711292-40.834995 0-73.753001 33.126348-73.753001 73.753001s33.126348 73.961343 73.753001 73.961343z" fill="#00897B" /><path d="M547.522279 732.529807h-62.710885c-52.085453 0-94.587182 42.501729-94.587182 94.37884v19.58413c37.91821 13.958901 78.753204 21.667548 121.671617 21.667549 45.835198 0 89.79532-8.750356 130.00529-24.792676V827.116989c0.208342-52.293795-42.293388-94.587182-94.37884-94.587182z" fill="#EF5350" /><path d="M453.143438 719.612614c-16.667345-16.042319-27.292777-38.334893-28.126144-62.919226-2.29176-0.208342-4.58352-0.416684-6.87528-0.416684h-62.502543c-52.085453 0-94.37884 42.501729-94.37884 94.587182v11.875483l2.708443 2.708444c31.251272 31.251272 68.127772 56.460631 109.171109 74.169684v-12.500508c-0.208342-50.62706 33.543032-93.545473 80.003255-107.504375z" fill="#F9A825" /><path d="M791.282197 582.107019H729.196338c-0.625025 24.792675-11.250458 47.293591-28.126145 63.335911 43.335097 12.917192 75.628077 51.252085 79.794914 97.712309 33.33469-39.584944 58.127365-86.878535 71.461241-138.547304-16.459003-14.167243-37.709868-22.500916-61.044151-22.500916z" fill="#00897B" /><path d="M669.61058 656.276704h-62.08586c-0.625025 24.792675-11.250458 47.293591-28.126144 63.33591 46.251882 13.75056 80.211597 56.668973 80.211597 107.504375v8.750356c37.709868-17.500712 71.669583-41.46002 100.629095-70.419532l3.750152-3.750153v-10.833774c0.208342-52.085453-42.293388-94.587182-94.37884-94.587182z" fill="#F9A825" /><path d="M590.024008 653.776602c0 40.834995-33.126348 73.753001-73.753001 73.753001-40.834995 0-73.753001-33.126348-73.753001-73.753001 0-40.834995 33.126348-73.753001 73.753001-73.753001 40.834995 0 73.753001 32.918006 73.753001 73.753001z" fill="#EF5350" /><path d="M686.277925 502.103764c23.334283 14.583927 39.584944 39.16826 42.501729 67.91943 9.375381 4.375178 20.000814 6.87528 31.251272 6.87528 40.834995 0 73.753001-32.918006 73.753001-73.753001 0-40.834995-32.918006-73.753001-73.753001-73.753001-40.418311 0-73.127976 32.501322-73.753001 72.711292z" fill="#00897B" /><path d="M386.890743 503.770498c-40.834995 0-73.753001 33.126348-73.753001 73.753001s32.918006 73.753001 73.753001 73.753002c14.375585 0 27.917803-4.166836 39.16826-11.4588 3.541811-23.542625 16.250661-44.168464 34.376399-58.127365 0-1.458393 0.208342-2.708444 0.208342-4.166837 0-40.834995-33.126348-73.753001-73.753001-73.753001zM638.359308 651.276501c40.834995 0 73.753001-32.918006 73.753001-73.753002 0-40.834995-33.126348-73.753001-73.753001-73.753001-40.418311 0-73.127976 32.501322-73.753001 72.711292 23.334283 14.583927 39.584944 39.16826 42.50173 67.919431 9.583723 4.375178 20.000814 6.87528 31.251271 6.87528z" fill="#F9A825" /></svg>