<svg width="30" height="30" viewBox="0 0 30 30" fill="none" xmlns="http://www.w3.org/2000/svg">
<path id="Vector" d="M29.8909 20.1429L26.5091 16.3929C26.2909 16.1786 26.0727 16.0714 25.6364 16.0714H19.2V13.9286H24.6545C24.9818 13.9286 25.2 13.8214 25.4182 13.6071C25.6364 13.3929 25.7455 13.1786 25.7455 12.8571V5.35714C25.7455 5.03571 25.6364 4.82143 25.4182 4.60714C25.2 4.39286 24.9818 4.28571 24.6545 4.28571H19.2V1.07143C19.2 0.75 19.0909 0.535714 18.8727 0.321429C18.6545 0.107143 18.4364 0 18.1091 0H11.5636C11.2364 0 11.0182 0.107143 10.8 0.321429C10.5818 0.535714 10.4727 0.75 10.4727 1.07143V4.28571H4.36364C4.03636 4.28571 3.81818 4.39286 3.6 4.60714L0.218182 8.35714C-2.11326e-07 8.57143 0 8.78571 0 9.10714C0 9.42857 0.109091 9.64286 0.218182 9.85714L3.6 13.6071C3.81818 13.8214 4.03636 13.9286 4.36364 13.9286H10.4727V16.0714H5.34545C5.01818 16.0714 4.8 16.1786 4.58182 16.3929C4.36364 16.6071 4.25455 16.8214 4.25455 17.1429V24.6429C4.25455 24.9643 4.36364 25.1786 4.58182 25.3929C4.8 25.6071 5.12727 25.7143 5.34545 25.7143H10.4727V28.9286C10.4727 29.25 10.5818 29.4643 10.8 29.6786C11.0182 29.8929 11.2364 30 11.5636 30H18.1091C18.4364 30 18.6545 29.8929 18.8727 29.6786C19.0909 29.4643 19.2 29.25 19.2 28.9286V25.7143H25.5273C25.8545 25.7143 26.1818 25.6071 26.4 25.3929L29.7818 21.6429C30 21.4286 30 21.2143 30 20.8929C30 20.5714 30 20.3571 29.8909 20.1429ZM12.6545 2.14286H17.0182V4.28571H12.6545V2.14286ZM4.90909 11.7857L2.50909 9.10714L4.90909 6.42857H23.5636V11.7857H4.90909ZM12.6545 13.9286H17.0182V16.0714H12.6545V13.9286ZM17.0182 27.8571H12.6545V25.7143H17.0182V27.8571ZM25.0909 23.5714H6.43636V18.2143H25.0909L27.4909 20.8929L25.0909 23.5714Z" fill="#FFD454" fill-opacity="0.85"/>
</svg>
